<svg width="40" height="40" viewBox="0 0 40 40" fill="none" xmlns="http://www.w3.org/2000/svg">
<path d="M24.9286 9H15.071C11.7235 9 9 11.7236 9 15.0712V24.9287C9 28.2764 11.7235 30.9999 15.071 30.9999H24.9286C28.2764 30.9999 30.9999 28.2763 30.9999 24.9287V15.0712C31 11.7236 28.2764 9 24.9286 9ZM29.0481 24.9287C29.0481 27.2001 27.2001 29.0479 24.9287 29.0479H15.071C12.7998 29.0481 10.9519 27.2001 10.9519 24.9287V15.0712C10.9519 12.7999 12.7998 10.9519 15.071 10.9519H24.9286C27.2 10.9519 29.0479 12.7999 29.0479 15.0712V24.9287H29.0481Z" fill="#f5f1f0"/>
<path d="M19.9999 14.332C16.874 14.332 14.3311 16.875 14.3311 20.0008C14.3311 23.1265 16.874 25.6694 19.9999 25.6694C23.1257 25.6694 25.6687 23.1265 25.6687 20.0008C25.6687 16.875 23.1257 14.332 19.9999 14.332ZM19.9999 23.7173C17.9505 23.7173 16.283 22.0501 16.283 20.0007C16.283 17.9512 17.9503 16.2838 19.9999 16.2838C22.0494 16.2838 23.7167 17.9512 23.7167 20.0007C23.7167 22.0501 22.0493 23.7173 19.9999 23.7173Z" fill="#f5f1f0"/>
<path d="M25.906 12.6758C25.53 12.6758 25.1605 12.828 24.8949 13.0948C24.628 13.3603 24.4746 13.7298 24.4746 14.1072C24.4746 14.4834 24.6282 14.8528 24.8949 15.1196C25.1604 15.3851 25.53 15.5386 25.906 15.5386C26.2834 15.5386 26.6517 15.3851 26.9184 15.1196C27.1852 14.8528 27.3374 14.4833 27.3374 14.1072C27.3374 13.7298 27.1852 13.3603 26.9184 13.0948C26.653 12.828 26.2834 12.6758 25.906 12.6758Z" fill="#f5f1f0"/>
</svg>
