<svg width="146" height="64" viewBox="0 0 146 64" fill="none" xmlns="http://www.w3.org/2000/svg">
<rect x="0.5" width="145" height="64" rx="4" fill="#16171A"/>
<path d="M44.5 20L44.5 44L20.5 44" stroke="#F5F1F0" stroke-width="2" stroke-linecap="round"/>
<path d="M44.0156 43.1289L22.3382 21.3547" stroke="#F5F1F0" stroke-width="2" stroke-linecap="round"/>
<path d="M65.508 38.5V25.54H67.506L72.888 31.948L78.27 25.54H80.268V38.5H78.81V27.196L72.888 34.234L66.966 27.196V38.5H65.508ZM84.3312 38.5C83.7312 38.5 83.2212 38.29 82.8012 37.87C82.3812 37.45 82.1712 36.94 82.1712 36.34V27.7C82.1712 27.1 82.3812 26.59 82.8012 26.17C83.2212 25.75 83.7312 25.54 84.3312 25.54H92.9712C93.5712 25.54 94.0812 25.75 94.5012 26.17C94.9212 26.59 95.1312 27.1 95.1312 27.7V36.34C95.1312 36.94 94.9212 37.45 94.5012 37.87C94.0812 38.29 93.5712 38.5 92.9712 38.5H84.3312ZM84.3312 37.042H92.9712C93.1632 37.042 93.3252 36.976 93.4572 36.844C93.6012 36.7 93.6732 36.532 93.6732 36.34V27.7C93.6732 27.508 93.6012 27.346 93.4572 27.214C93.3252 27.07 93.1632 26.998 92.9712 26.998H84.3312C84.1392 26.998 83.9712 27.07 83.8272 27.214C83.6952 27.346 83.6292 27.508 83.6292 27.7V36.34C83.6292 36.532 83.6952 36.7 83.8272 36.844C83.9712 36.976 84.1392 37.042 84.3312 37.042ZM97.0955 38.5V25.558H107.895C108.495 25.558 109.005 25.774 109.425 26.206C109.845 26.626 110.055 27.13 110.055 27.718V31.516C110.055 32.104 109.845 32.614 109.425 33.046C109.005 33.466 108.495 33.676 107.895 33.676H105.915L109.983 38.482V38.5H108.057L104.007 33.676L98.5535 33.658V38.5H97.0955ZM99.2555 32.2H107.895C108.087 32.2 108.249 32.134 108.381 32.002C108.513 31.87 108.579 31.708 108.579 31.516V27.718C108.579 27.526 108.513 27.364 108.381 27.232C108.249 27.088 108.087 27.016 107.895 27.016H99.2555C99.0635 27.016 98.8955 27.088 98.7515 27.232C98.6195 27.364 98.5535 27.526 98.5535 27.718V31.516C98.5535 31.708 98.6195 31.87 98.7515 32.002C98.8955 32.134 99.0635 32.2 99.2555 32.2ZM112.003 38.5V25.54H123.829V26.998H113.461V31.282H121.795V32.758H113.461V37.042H123.829V38.5H112.003Z" fill="#F5F1F0"/>
</svg>
