<svg width="146" height="64" viewBox="0 0 146 64" fill="none" xmlns="http://www.w3.org/2000/svg">
<rect x="0.5" width="145" height="64" rx="5" fill="#F0612C"/>
<path d="M44.5 20L44.5 44L20.5 44" stroke="#F5F1F0" stroke-width="2" stroke-linecap="round"/>
<path d="M44.0156 43.1289L22.3382 21.3547" stroke="#F5F1F0" stroke-width="2" stroke-linecap="round"/>
<path d="M65.508 38.5V25.54H68.118L72.816 31.138L77.496 25.54H80.124V38.5H77.73V28.996L72.816 34.846L67.884 29.014V38.5H65.508ZM84.6732 38.5C83.9892 38.5 83.4012 38.254 82.9092 37.762C82.4172 37.27 82.1712 36.682 82.1712 35.998V28.042C82.1712 27.358 82.4172 26.77 82.9092 26.278C83.4012 25.786 83.9892 25.54 84.6732 25.54H92.6292C93.3132 25.54 93.9012 25.786 94.3932 26.278C94.8852 26.77 95.1312 27.358 95.1312 28.042V35.998C95.1312 36.682 94.8852 37.27 94.3932 37.762C93.9012 38.254 93.3132 38.5 92.6292 38.5H84.6732ZM85.1772 36.106H92.1072C92.4312 36.106 92.6172 36.088 92.6652 36.052C92.7132 36.004 92.7372 35.812 92.7372 35.476V28.564C92.7372 28.228 92.7132 28.042 92.6652 28.006C92.6172 27.958 92.4312 27.934 92.1072 27.934H85.1772C84.8412 27.934 84.6492 27.958 84.6012 28.006C84.5652 28.042 84.5472 28.228 84.5472 28.564V35.476C84.5472 35.812 84.5652 36.004 84.6012 36.052C84.6492 36.088 84.8412 36.106 85.1772 36.106ZM97.0955 38.5V25.558H107.535C108.231 25.558 108.825 25.81 109.317 26.314C109.809 26.806 110.055 27.388 110.055 28.06V31.552C110.055 32.236 109.809 32.824 109.317 33.316C108.825 33.808 108.231 34.054 107.535 34.054H106.833L110.037 37.834V38.5H107.445L103.719 34.054L99.4715 34.072V38.5H97.0955ZM100.101 31.66H107.031C107.355 31.66 107.535 31.642 107.571 31.606C107.619 31.57 107.643 31.384 107.643 31.048V28.564C107.643 28.228 107.619 28.042 107.571 28.006C107.535 27.958 107.355 27.934 107.031 27.934H100.101C99.7655 27.934 99.5735 27.958 99.5255 28.006C99.4895 28.042 99.4715 28.228 99.4715 28.564V31.048C99.4715 31.384 99.4895 31.57 99.5255 31.606C99.5735 31.642 99.7655 31.66 100.101 31.66ZM112.003 38.5V25.54H123.937V27.934H114.397V30.814H122.065V33.226H114.397V36.106H123.937V38.5H112.003Z" fill="#F5F1F0"/>
</svg>
