<svg width="40" height="40" viewBox="0 0 40 40" fill="none" xmlns="http://www.w3.org/2000/svg">
<path d="M27.7262 18.8341C27.5091 18.8341 27.2951 18.855 27.0856 18.8967C26.8577 17.8034 26.2942 16.8055 25.4619 16.0388C24.4667 15.1221 23.1729 14.6172 21.8187 14.6172C21.1583 14.6172 20.4841 14.7431 19.8691 14.9813C19.6016 15.0851 19.4687 15.386 19.5723 15.6536C19.676 15.9213 19.9768 16.0541 20.2446 15.9504C20.741 15.7581 21.2854 15.6564 21.8187 15.6564C24.0844 15.6564 25.9434 17.3575 26.1429 19.6134C26.1575 19.7787 26.2501 19.927 26.3923 20.0127C26.5345 20.0983 26.709 20.111 26.8619 20.0466C27.1354 19.9316 27.4263 19.8733 27.7263 19.8733C28.9586 19.8733 29.9611 20.8762 29.9611 22.1089C29.9611 23.3416 28.9584 24.3446 27.7258 24.3446C27.6564 24.3446 20.3401 24.3413 20.0985 24.3404C19.8324 24.3346 19.6029 24.5328 19.5726 24.8017C19.5405 25.0869 19.7456 25.3442 20.0308 25.3762C20.0972 25.3837 27.6495 25.3838 27.7258 25.3838C29.5314 25.3838 31.0004 23.9146 31.0004 22.1089C31.0003 20.3032 29.5316 18.8341 27.7262 18.8341Z" fill="#f5f1f0" stroke="#f5f1f0"/>
<path d="M9.51963 19.6641C9.23266 19.6641 9 19.8967 9 20.1837V24.3435C9 24.6304 9.23266 24.8631 9.51963 24.8631C9.80661 24.8631 10.0393 24.6304 10.0393 24.3435V20.1837C10.0393 19.8967 9.80661 19.6641 9.51963 19.6641Z" fill="#f5f1f0"/>
<path d="M12.1817 18.8398C11.8948 18.8398 11.6621 19.0725 11.6621 19.3595V24.2835C11.6621 24.5705 11.8948 24.8032 12.1817 24.8032C12.4687 24.8032 12.7014 24.5705 12.7014 24.2835V19.3595C12.7014 19.0725 12.4687 18.8398 12.1817 18.8398Z" fill="#f5f1f0"/>
<path d="M14.9073 16.6367C14.6204 16.6367 14.3877 16.8694 14.3877 17.1564V24.8469C14.3877 25.1339 14.6204 25.3666 14.9073 25.3666C15.1943 25.3666 15.427 25.1339 15.427 24.8469V17.1564C15.427 16.8694 15.1943 16.6367 14.9073 16.6367Z" fill="#f5f1f0"/>
<path d="M17.6983 16.7227C17.4114 16.7227 17.1787 16.9553 17.1787 17.2423V24.8515C17.1787 25.1385 17.4114 25.3712 17.6983 25.3712C17.9853 25.3712 18.218 25.1385 18.218 24.8515V17.2423C18.218 16.9553 17.9853 16.7227 17.6983 16.7227Z" fill="#f5f1f0"/>
</svg>
