<svg width="40" height="40" viewBox="0 0 40 40" fill="none" xmlns="http://www.w3.org/2000/svg">
<path d="M24.1742 23.2404C20.513 21.5484 15.3886 22.2968 15.1723 22.3294C14.69 22.4023 14.3581 22.8522 14.4309 23.3345C14.5038 23.8168 14.9541 24.1484 15.436 24.0758C15.4838 24.0685 20.2479 23.3715 23.4332 24.8436C23.5531 24.8991 23.6792 24.9253 23.8032 24.9253C24.1369 24.9252 24.4562 24.7353 24.6054 24.4126C24.8099 23.9699 24.6169 23.4451 24.1742 23.2404Z" fill="#f5f1f0"/>
<path d="M25.2037 20.0611C21.0458 18.1396 15.215 18.9912 14.9688 19.0282C14.4868 19.1011 14.1551 19.5508 14.2278 20.0328C14.3003 20.515 14.7503 20.8472 15.2322 20.7748C15.2873 20.7664 20.7905 19.9674 24.4627 21.6644C24.5828 21.7199 24.7087 21.7461 24.8327 21.7461C25.1664 21.746 25.4857 21.5561 25.635 21.2333C25.8395 20.7905 25.6464 20.2657 25.2037 20.0611Z" fill="#f5f1f0"/>
<path d="M25.8948 16.7384C21.3021 14.6158 14.8515 15.5577 14.5792 15.5988C14.0971 15.6717 13.7655 16.1213 13.8381 16.6034C13.9108 17.0854 14.3609 17.418 14.8426 17.3452C14.9042 17.3359 21.0467 16.4436 25.1538 18.3416C25.2737 18.3971 25.3998 18.4233 25.5238 18.4233C25.8575 18.4233 26.1768 18.2333 26.326 17.9106C26.5306 17.4677 26.3375 16.9431 25.8948 16.7384Z" fill="#f5f1f0"/>
<path d="M20.0001 9C13.9346 9 9 13.9344 9 19.9996C9 26.0651 13.9346 30.9998 20.0001 30.9998C26.0654 30.9998 31 26.0651 31 19.9996C31 13.9344 26.0654 9 20.0001 9ZM20.0001 29.2336C14.9084 29.2336 10.7662 25.0913 10.7662 19.9996C10.7662 14.9082 14.9084 10.7661 20.0001 10.7661C25.0916 10.7661 29.2338 14.9082 29.2338 19.9996C29.2338 25.0913 25.0916 29.2336 20.0001 29.2336Z" fill="#f5f1f0"/>
</svg>
