<svg width="28" height="28" viewBox="0 0 28 28" fill="none" xmlns="http://www.w3.org/2000/svg">
<path d="M1 0C0.447715 4.82823e-08 -4.82823e-08 0.447715 0 1C4.82823e-08 1.55228 0.447715 2 1 2L1 0ZM27 2L28 2L28 -2.36042e-06L27 -2.27299e-06L27 2ZM1 2L27 2L27 -2.27299e-06L1 0L1 2Z" fill="#6B6E7A"/>
<path d="M26 27C26 27.5523 26.4477 28 27 28C27.5523 28 28 27.5523 28 27L26 27ZM26 1L26 27L28 27L28 1L26 1Z" fill="#6B6E7A"/>
<path d="M1.22147 25.3643C0.830942 25.7548 0.830942 26.388 1.22147 26.7785C1.61199 27.1691 2.24516 27.1691 2.63568 26.7785L1.22147 25.3643ZM26.2929 0.292893L1.22147 25.3643L2.63568 26.7785L27.7071 1.70711L26.2929 0.292893Z" fill="#6B6E7A"/>
</svg>
