<svg width="28" height="41" viewBox="0 0 28 41" fill="none" xmlns="http://www.w3.org/2000/svg">
<path fill-rule="evenodd" clip-rule="evenodd" d="M1.51204 0.712059C1.93578 0.379206 2.62172 0.378349 3.04412 0.710146L26.895 19.4451C27.3174 19.7768 27.3163 20.3157 26.8926 20.6485C26.4688 20.9814 25.7829 20.9822 25.3605 20.6504L1.5096 1.91551C1.0872 1.58372 1.08829 1.04491 1.51204 0.712059Z" fill="#F5F1F0"/>
<path fill-rule="evenodd" clip-rule="evenodd" d="M1.43913 39.505C1.01539 39.1722 1.01539 38.6325 1.43913 38.2997L25.366 19.5051C25.7897 19.1722 26.4767 19.1722 26.9005 19.5051C27.3242 19.8379 27.3242 20.3776 26.9005 20.7105L2.97365 39.505C2.54991 39.8379 1.86288 39.8379 1.43913 39.505Z" fill="#F5F1F0"/>
</svg>
