<svg width="33" height="33" viewBox="0 0 33 33" fill="none" xmlns="http://www.w3.org/2000/svg">
<path fill-rule="evenodd" clip-rule="evenodd" d="M3.29289 3.29304C3.68342 2.90252 4.31658 2.90252 4.70711 3.29304L30.163 28.7489C30.5535 29.1394 30.5535 29.7726 30.163 30.1631C29.7724 30.5536 29.1393 30.5536 28.7487 30.1631L3.29289 4.70726C2.90237 4.31673 2.90237 3.68357 3.29289 3.29304Z" fill="#F5F1F0"/>
<path fill-rule="evenodd" clip-rule="evenodd" d="M2.23223 2.23261C3.20854 1.2563 4.79146 1.2563 5.76777 2.23261L31.2236 27.6885C32.1999 28.6648 32.1999 30.2477 31.2236 31.224C30.2473 32.2003 28.6644 32.2003 27.6881 31.224L2.23223 5.76814C1.25592 4.79183 1.25592 3.20892 2.23223 2.23261Z" fill="#F5F1F0"/>
<path fill-rule="evenodd" clip-rule="evenodd" d="M3.29304 30.1641C2.90252 29.7736 2.90252 29.1404 3.29304 28.7499L28.7489 3.29408C29.1394 2.90356 29.7726 2.90356 30.1631 3.29408C30.5536 3.68461 30.5536 4.31777 30.1631 4.70829L4.70726 30.1641C4.31673 30.5547 3.68357 30.5547 3.29304 30.1641Z" fill="#F5F1F0"/>
<path fill-rule="evenodd" clip-rule="evenodd" d="M2.23261 31.2248C1.2563 30.2485 1.2563 28.6656 2.23261 27.6893L27.6885 2.23342C28.6648 1.25711 30.2477 1.25711 31.224 2.23342C32.2003 3.20973 32.2003 4.79264 31.224 5.76895L5.76814 31.2248C4.79183 32.2011 3.20892 32.2011 2.23261 31.2248Z" fill="#F5F1F0"/>
</svg>
